<svg width="25" height="24" viewBox="0 0 25 24" fill="none" xmlns="http://www.w3.org/2000/svg">
<path d="M20.97 7.37005C20.97 7.37005 20.97 7.37005 20.97 7.29005L20.91 7.14005C20.8891 7.10822 20.8657 7.07812 20.84 7.05005C20.8132 7.00772 20.7831 6.96759 20.75 6.93005L20.66 6.86005L20.5 6.78005L13 2.15005C12.8411 2.05072 12.6574 1.99805 12.47 1.99805C12.2826 1.99805 12.0989 2.05072 11.94 2.15005L4.49999 6.78005L4.40999 6.86005L4.31999 6.93005C4.28684 6.96759 4.25675 7.00772 4.22999 7.05005C4.20428 7.07812 4.18088 7.10822 4.15999 7.14005L4.09999 7.29005C4.09999 7.29005 4.09999 7.29005 4.09999 7.37005C4.09016 7.45644 4.09016 7.54366 4.09999 7.63005V16.3701C4.09965 16.54 4.14263 16.7072 4.22486 16.8559C4.3071 17.0047 4.42588 17.13 4.56999 17.22L12.07 21.85C12.1162 21.8786 12.1669 21.8989 12.22 21.91C12.22 21.91 12.27 21.91 12.3 21.91C12.4692 21.9637 12.6508 21.9637 12.82 21.91C12.82 21.91 12.87 21.91 12.9 21.91C12.9531 21.8989 13.0038 21.8786 13.05 21.85L20.5 17.22C20.6441 17.13 20.7629 17.0047 20.8451 16.8559C20.9274 16.7072 20.9703 16.54 20.97 16.3701V7.63005C20.9798 7.54366 20.9798 7.45644 20.97 7.37005ZM11.5 19.21L5.99999 15.8101V9.43005L11.5 12.82V19.21ZM12.5 11.09L6.89999 7.63005L12.5 4.18005L18.1 7.63005L12.5 11.09ZM19 15.8101L13.5 19.21V12.82L19 9.43005V15.8101Z" />
</svg>
