<svg width="25" height="24" viewBox="0 0 25 24" fill="none" xmlns="http://www.w3.org/2000/svg">
<path d="M14.5 9H10.5C10.2348 9 9.98043 9.10536 9.79289 9.29289C9.60536 9.48043 9.5 9.73478 9.5 10V22C9.5 22.2652 9.60536 22.5196 9.79289 22.7071C9.98043 22.8946 10.2348 23 10.5 23H14.5C14.7652 23 15.0196 22.8946 15.2071 22.7071C15.3946 22.5196 15.5 22.2652 15.5 22V10C15.5 9.73478 15.3946 9.48043 15.2071 9.29289C15.0196 9.10536 14.7652 9 14.5 9ZM13.5 21H11.5V11H13.5V21ZM22.5 1H18.5C18.2348 1 17.9804 1.10536 17.7929 1.29289C17.6054 1.48043 17.5 1.73478 17.5 2V22C17.5 22.2652 17.6054 22.5196 17.7929 22.7071C17.9804 22.8946 18.2348 23 18.5 23H22.5C22.7652 23 23.0196 22.8946 23.2071 22.7071C23.3946 22.5196 23.5 22.2652 23.5 22V2C23.5 1.73478 23.3946 1.48043 23.2071 1.29289C23.0196 1.10536 22.7652 1 22.5 1ZM21.5 21H19.5V3H21.5V21ZM6.5 15H2.5C2.23478 15 1.98043 15.1054 1.79289 15.2929C1.60536 15.4804 1.5 15.7348 1.5 16V22C1.5 22.2652 1.60536 22.5196 1.79289 22.7071C1.98043 22.8946 2.23478 23 2.5 23H6.5C6.76522 23 7.01957 22.8946 7.20711 22.7071C7.39464 22.5196 7.5 22.2652 7.5 22V16C7.5 15.7348 7.39464 15.4804 7.20711 15.2929C7.01957 15.1054 6.76522 15 6.5 15ZM5.5 21H3.5V17H5.5V21Z"/>
</svg>
