<svg width="16" height="16" viewBox="0 0 16 16" fill="none" xmlns="http://www.w3.org/2000/svg">
<path d="M11.3332 6.11333C11.2083 5.98916 11.0393 5.91946 10.8632 5.91946C10.6871 5.91946 10.5181 5.98916 10.3932 6.11333L7.99988 8.47333L5.63988 6.11333C5.51498 5.98916 5.34601 5.91946 5.16988 5.91946C4.99376 5.91946 4.82479 5.98916 4.69988 6.11333C4.6374 6.1753 4.5878 6.24904 4.55396 6.33027C4.52011 6.41151 4.50269 6.49865 4.50269 6.58666C4.50269 6.67467 4.52011 6.7618 4.55396 6.84304C4.5878 6.92428 4.6374 6.99802 4.69988 7.05999L7.52655 9.88666C7.58853 9.94914 7.66226 9.99874 7.7435 10.0326C7.82474 10.0664 7.91188 10.0839 7.99988 10.0839C8.08789 10.0839 8.17503 10.0664 8.25627 10.0326C8.33751 9.99874 8.41124 9.94914 8.47322 9.88666L11.3332 7.05999C11.3957 6.99802 11.4453 6.92428 11.4791 6.84304C11.513 6.7618 11.5304 6.67467 11.5304 6.58666C11.5304 6.49865 11.513 6.41151 11.4791 6.33027C11.4453 6.24904 11.3957 6.1753 11.3332 6.11333Z" fill="#0E0E0E"/>
</svg>
