<svg width="16" height="16" viewBox="0 0 16 16" fill="none" xmlns="http://www.w3.org/2000/svg">
<path d="M12.4735 4.8067C12.4115 4.74421 12.3378 4.69461 12.2565 4.66077C12.1753 4.62692 12.0881 4.6095 12.0001 4.6095C11.9121 4.6095 11.825 4.62692 11.7437 4.66077C11.6625 4.69461 11.5888 4.74421 11.5268 4.8067L6.56013 9.78003L4.47346 7.6867C4.40911 7.62454 4.33315 7.57566 4.24992 7.54286C4.16668 7.51006 4.0778 7.49397 3.98834 7.49552C3.89889 7.49706 3.81062 7.51622 3.72857 7.55188C3.64651 7.58754 3.57229 7.63902 3.51013 7.70336C3.44797 7.76771 3.39909 7.84367 3.36629 7.92691C3.33349 8.01014 3.3174 8.09903 3.31895 8.18848C3.3205 8.27793 3.33965 8.36621 3.37531 8.44826C3.41097 8.53031 3.46245 8.60454 3.5268 8.6667L6.0868 11.2267C6.14877 11.2892 6.22251 11.3388 6.30375 11.3726C6.38498 11.4065 6.47212 11.4239 6.56013 11.4239C6.64814 11.4239 6.73527 11.4065 6.81651 11.3726C6.89775 11.3388 6.97149 11.2892 7.03346 11.2267L12.4735 5.7867C12.5411 5.72427 12.5951 5.6485 12.6321 5.56417C12.669 5.47983 12.6881 5.38876 12.6881 5.2967C12.6881 5.20463 12.669 5.11356 12.6321 5.02923C12.5951 4.94489 12.5411 4.86912 12.4735 4.8067Z" fill="currentColor"/>
</svg>
