<svg width="16" height="16" viewBox="0 0 16 16" fill="none" xmlns="http://www.w3.org/2000/svg">
<path d="M9.81301 5.86004L6.95301 8.72671L5.85301 7.62671C5.79325 7.55692 5.7197 7.50024 5.63699 7.46022C5.55428 7.42021 5.46419 7.39772 5.37238 7.39418C5.28057 7.39063 5.18901 7.4061 5.10346 7.43962C5.01791 7.47313 4.94021 7.52397 4.87524 7.58894C4.81027 7.65391 4.75944 7.73161 4.72592 7.81716C4.6924 7.90271 4.67693 7.99426 4.68048 8.08608C4.68402 8.17789 4.70651 8.26798 4.74653 8.35069C4.78654 8.4334 4.84322 8.50694 4.91301 8.56671L6.47968 10.14C6.54197 10.2018 6.61585 10.2507 6.69707 10.2839C6.7783 10.3171 6.86527 10.3339 6.95301 10.3334C7.1279 10.3326 7.2955 10.2632 7.41968 10.14L10.753 6.80671C10.8155 6.74473 10.8651 6.671 10.8989 6.58976C10.9328 6.50852 10.9502 6.42138 10.9502 6.33337C10.9502 6.24537 10.9328 6.15823 10.8989 6.07699C10.8651 5.99575 10.8155 5.92202 10.753 5.86004C10.6281 5.73587 10.4591 5.66618 10.283 5.66618C10.1069 5.66618 9.93792 5.73587 9.81301 5.86004ZM7.99968 1.33337C6.68114 1.33337 5.3922 1.72437 4.29588 2.45691C3.19955 3.18945 2.34506 4.23064 1.84048 5.44882C1.3359 6.66699 1.20387 8.00744 1.46111 9.30064C1.71834 10.5938 2.35328 11.7817 3.28563 12.7141C4.21798 13.6464 5.40587 14.2814 6.69908 14.5386C7.99228 14.7958 9.33273 14.6638 10.5509 14.1592C11.7691 13.6547 12.8103 12.8002 13.5428 11.7038C14.2754 10.6075 14.6663 9.31858 14.6663 8.00004C14.6663 7.12456 14.4939 6.25765 14.1589 5.44882C13.8238 4.63998 13.3328 3.90505 12.7137 3.286C12.0947 2.66694 11.3597 2.17588 10.5509 1.84084C9.74206 1.50581 8.87516 1.33337 7.99968 1.33337ZM7.99968 13.3334C6.94484 13.3334 5.9137 13.0206 5.03664 12.4345C4.15957 11.8485 3.47599 11.0156 3.07232 10.041C2.66865 9.06648 2.56304 7.99412 2.76882 6.95956C2.97461 5.92499 3.48256 4.97468 4.22844 4.2288C4.97432 3.48292 5.92463 2.97497 6.9592 2.76919C7.99376 2.5634 9.06612 2.66902 10.0407 3.07268C11.0152 3.47635 11.8481 4.15994 12.4342 5.037C13.0202 5.91406 13.333 6.94521 13.333 8.00004C13.333 9.41453 12.7711 10.7711 11.7709 11.7713C10.7707 12.7715 9.41417 13.3334 7.99968 13.3334Z" fill="currentColor"/>
</svg>
