<svg width="16" height="16" viewBox="0 0 16 16" fill="none" xmlns="http://www.w3.org/2000/svg">
<path d="M7.3333 1.33337C6.01475 1.33337 4.72582 1.72437 3.62949 2.45691C2.53317 3.18945 1.67868 4.23064 1.1741 5.44882C0.669515 6.66699 0.537492 8.00744 0.794727 9.30064C1.05196 10.5938 1.6869 11.7817 2.61925 12.7141C3.5516 13.6464 4.73949 14.2814 6.03269 14.5386C7.3259 14.7958 8.66635 14.6638 9.88452 14.1592C11.1027 13.6547 12.1439 12.8002 12.8764 11.7038C13.609 10.6075 14 9.31858 14 8.00004C14 7.12456 13.8275 6.25765 13.4925 5.44882C13.1575 4.63998 12.6664 3.90505 12.0473 3.286C11.4283 2.66694 10.6934 2.17588 9.88452 1.84084C9.07568 1.50581 8.20878 1.33337 7.3333 1.33337ZM7.3333 13.3334C6.27846 13.3334 5.24732 13.0206 4.37025 12.4345C3.49319 11.8485 2.80961 11.0156 2.40594 10.041C2.00227 9.06648 1.89665 7.99412 2.10244 6.95956C2.30823 5.92499 2.81618 4.97468 3.56206 4.2288C4.30794 3.48292 5.25825 2.97497 6.29281 2.76919C7.32738 2.5634 8.39973 2.66902 9.37427 3.07268C10.3488 3.47635 11.1818 4.15994 11.7678 5.037C12.3538 5.91406 12.6666 6.94521 12.6666 8.00004C12.6666 9.41453 12.1047 10.7711 11.1045 11.7713C10.1043 12.7715 8.74778 13.3334 7.3333 13.3334ZM7.3333 4.00004C7.15649 4.00004 6.98692 4.07028 6.86189 4.1953C6.73687 4.32033 6.66663 4.4899 6.66663 4.66671V7.95337L5.7533 9.53337C5.66489 9.6872 5.64121 9.86984 5.68747 10.0411C5.73373 10.2124 5.84614 10.3583 5.99996 10.4467C6.15379 10.5351 6.33643 10.5588 6.50772 10.5125C6.679 10.4663 6.82489 10.3539 6.9133 10.2L7.9133 8.46671C7.97744 8.3462 8.00303 8.2089 7.98663 8.07337L7.99996 8.00004V4.66671C7.99996 4.4899 7.92972 4.32033 7.8047 4.1953C7.67968 4.07028 7.51011 4.00004 7.3333 4.00004Z" fill="white"/>
</svg>
