<svg width="16" height="16" viewBox="0 0 16 16" fill="none" xmlns="http://www.w3.org/2000/svg">
<path d="M12.6663 2.66675H3.33301C2.80257 2.66675 2.29387 2.87746 1.91879 3.25253C1.54372 3.62761 1.33301 4.13632 1.33301 4.66675V11.3334C1.33301 11.8638 1.54372 12.3726 1.91879 12.7476C2.29387 13.1227 2.80257 13.3334 3.33301 13.3334H12.6663C13.1968 13.3334 13.7055 13.1227 14.0806 12.7476C14.4556 12.3726 14.6663 11.8638 14.6663 11.3334V4.66675C14.6663 4.13632 14.4556 3.62761 14.0806 3.25253C13.7055 2.87746 13.1968 2.66675 12.6663 2.66675ZM3.33301 12.0001C3.1562 12.0001 2.98663 11.9298 2.8616 11.8048C2.73658 11.6798 2.66634 11.5102 2.66634 11.3334V9.72008L4.86634 7.52675C4.99096 7.4046 5.15851 7.33618 5.33301 7.33618C5.50751 7.33618 5.67506 7.4046 5.79967 7.52675L10.273 12.0001H3.33301ZM13.333 11.3334C13.333 11.5102 13.2628 11.6798 13.1377 11.8048C13.0127 11.9298 12.8432 12.0001 12.6663 12.0001H12.153L9.61301 9.44675L10.1997 8.86008C10.3243 8.73793 10.4918 8.66951 10.6663 8.66951C10.8408 8.66951 11.0084 8.73793 11.133 8.86008L13.333 11.0534V11.3334ZM13.333 9.17342L12.0797 7.92675C11.6997 7.5617 11.1932 7.35783 10.6663 7.35783C10.1394 7.35783 9.63297 7.5617 9.25301 7.92675L8.66634 8.51342L6.74634 6.59342C6.36638 6.22837 5.85991 6.0245 5.33301 6.0245C4.8061 6.0245 4.29964 6.22837 3.91967 6.59342L2.66634 7.84008V4.66675C2.66634 4.48994 2.73658 4.32037 2.8616 4.19534C2.98663 4.07032 3.1562 4.00008 3.33301 4.00008H12.6663C12.8432 4.00008 13.0127 4.07032 13.1377 4.19534C13.2628 4.32037 13.333 4.48994 13.333 4.66675V9.17342Z" fill="white"/>
</svg>
