<svg width="16" height="16" viewBox="0 0 16 16" fill="none" xmlns="http://www.w3.org/2000/svg">
<path d="M8.00017 7.33337C7.82336 7.33337 7.65379 7.40361 7.52876 7.52864C7.40374 7.65366 7.3335 7.82323 7.3335 8.00004V10.6667C7.3335 10.8435 7.40374 11.0131 7.52876 11.1381C7.65379 11.2631 7.82336 11.3334 8.00017 11.3334C8.17698 11.3334 8.34655 11.2631 8.47157 11.1381C8.59659 11.0131 8.66683 10.8435 8.66683 10.6667V8.00004C8.66683 7.82323 8.59659 7.65366 8.47157 7.52864C8.34655 7.40361 8.17698 7.33337 8.00017 7.33337ZM8.2535 4.72004C8.09119 4.65336 7.90914 4.65336 7.74683 4.72004C7.665 4.75177 7.59024 4.79935 7.52683 4.86004C7.46795 4.92484 7.42059 4.99925 7.38683 5.08004C7.34951 5.15916 7.33125 5.24592 7.3335 5.33337C7.33299 5.42111 7.34981 5.50809 7.38299 5.58931C7.41616 5.67054 7.46504 5.74441 7.52683 5.80671C7.59163 5.86559 7.66604 5.91295 7.74683 5.94671C7.84783 5.9882 7.95748 6.00425 8.06613 5.99345C8.17479 5.98265 8.27912 5.94532 8.36997 5.88475C8.46083 5.82419 8.53541 5.74223 8.58717 5.64609C8.63893 5.54995 8.66629 5.44256 8.66683 5.33337C8.66438 5.15686 8.59532 4.9878 8.4735 4.86004C8.4101 4.79935 8.33533 4.75177 8.2535 4.72004ZM8.00017 1.33337C6.68162 1.33337 5.39269 1.72437 4.29636 2.45691C3.20004 3.18945 2.34555 4.23064 1.84097 5.44882C1.33638 6.66699 1.20436 8.00744 1.4616 9.30064C1.71883 10.5938 2.35377 11.7817 3.28612 12.7141C4.21847 13.6464 5.40636 14.2814 6.69956 14.5386C7.99277 14.7958 9.33322 14.6638 10.5514 14.1592C11.7696 13.6547 12.8108 12.8002 13.5433 11.7038C14.2758 10.6075 14.6668 9.31858 14.6668 8.00004C14.6668 7.12456 14.4944 6.25765 14.1594 5.44882C13.8243 4.63998 13.3333 3.90505 12.7142 3.286C12.0952 2.66694 11.3602 2.17588 10.5514 1.84084C9.74255 1.50581 8.87565 1.33337 8.00017 1.33337ZM8.00017 13.3334C6.94533 13.3334 5.91419 13.0206 5.03712 12.4345C4.16006 11.8485 3.47648 11.0156 3.07281 10.041C2.66914 9.06648 2.56352 7.99412 2.76931 6.95956C2.9751 5.92499 3.48305 4.97468 4.22893 4.2288C4.97481 3.48292 5.92512 2.97497 6.95968 2.76919C7.99425 2.5634 9.06661 2.66902 10.0411 3.07268C11.0157 3.47635 11.8486 4.15994 12.4347 5.037C13.0207 5.91406 13.3335 6.94521 13.3335 8.00004C13.3335 9.41453 12.7716 10.7711 11.7714 11.7713C10.7712 12.7715 9.41465 13.3334 8.00017 13.3334Z" fill="currentColor"/>
</svg>
