<svg width="17" height="16" viewBox="0 0 17 16" fill="none" xmlns="http://www.w3.org/2000/svg">
<path d="M14.9733 10.3867L11.96 7.38C12.0231 7.07292 12.0543 6.76016 12.0533 6.44667C12.0531 5.5871 11.8362 4.74147 11.4226 3.98793C11.0091 3.23438 10.4122 2.59726 9.68727 2.13543C8.96231 1.67361 8.13262 1.40199 7.2749 1.3457C6.41718 1.2894 5.55911 1.45023 4.78 1.81334C4.6813 1.85843 4.59509 1.92694 4.52886 2.01291C4.46264 2.09888 4.41841 2.19972 4.4 2.30667C4.38167 2.41226 4.38907 2.52072 4.42156 2.62284C4.45406 2.72497 4.51069 2.81775 4.58667 2.89334L7.48667 5.78667L6.28667 6.98667L3.39334 4.08667C3.31712 4.01187 3.22404 3.95648 3.12195 3.92516C3.01985 3.89383 2.91173 3.88749 2.80667 3.90667C2.70039 3.9244 2.59999 3.96763 2.51408 4.03265C2.42816 4.09766 2.35928 4.18254 2.31334 4.28C1.94902 5.06167 1.78833 5.92279 1.8462 6.78325C1.90407 7.6437 2.17864 8.47555 2.64435 9.20139C3.11006 9.92723 3.75178 10.5235 4.50983 10.9347C5.26788 11.3459 6.11762 11.5587 6.98 11.5533C7.29349 11.5543 7.60625 11.5231 7.91334 11.46L10.92 14.4733C10.982 14.5358 11.0557 14.5854 11.137 14.6193C11.2182 14.6531 11.3053 14.6705 11.3933 14.6705C11.4813 14.6705 11.5685 14.6531 11.6497 14.6193C11.731 14.5854 11.8047 14.5358 11.8667 14.4733C11.9292 14.4114 11.9788 14.3376 12.0126 14.2564C12.0464 14.1751 12.0639 14.088 12.0639 14C12.0639 13.912 12.0464 13.8249 12.0126 13.7436C11.9788 13.6624 11.9292 13.5886 11.8667 13.5267L8.6 10.26C8.51837 10.1789 8.41714 10.1203 8.30616 10.09C8.19517 10.0596 8.07822 10.0585 7.96667 10.0867C7.64479 10.1729 7.31322 10.2177 6.98 10.22C6.48137 10.2244 5.98679 10.1301 5.52476 9.94252C5.06274 9.75495 4.64239 9.47781 4.28793 9.12707C3.93348 8.77633 3.65192 8.35893 3.45948 7.8989C3.26705 7.43888 3.16753 6.94532 3.16667 6.44667C3.16581 6.22335 3.18365 6.00035 3.22 5.78L5.83334 8.4C5.89531 8.46249 5.96905 8.51209 6.05029 8.54593C6.13153 8.57978 6.21866 8.5972 6.30667 8.5972C6.39468 8.5972 6.48182 8.57978 6.56306 8.54593C6.64429 8.51209 6.71803 8.46249 6.78 8.4L8.9 6.26C9.02016 6.13569 9.08733 5.96956 9.08733 5.79667C9.08733 5.62378 9.02016 5.45765 8.9 5.33334L6.30667 2.72C6.52706 2.68401 6.75003 2.66617 6.97334 2.66667C7.9747 2.66844 8.93445 3.06746 9.64189 3.77616C10.3493 4.48486 10.7467 5.44531 10.7467 6.44667C10.7443 6.77989 10.6995 7.11145 10.6133 7.43334C10.5851 7.54489 10.5862 7.66184 10.6166 7.77282C10.647 7.88381 10.7056 7.98504 10.7867 8.06667L14.0533 11.3333C14.1789 11.4589 14.3491 11.5294 14.5267 11.5294C14.7042 11.5294 14.8745 11.4589 15 11.3333C15.1255 11.2078 15.1961 11.0375 15.1961 10.86C15.1961 10.6825 15.1255 10.5122 15 10.3867H14.9733Z"/>
</svg>
