<svg width="16" height="16" viewBox="0 0 16 16" fill="none" xmlns="http://www.w3.org/2000/svg">
<path d="M4.66658 6.66671C4.53473 6.66671 4.40584 6.70581 4.29621 6.77906C4.18657 6.85231 4.10112 6.95643 4.05067 7.07825C4.00021 7.20007 3.987 7.33411 4.01273 7.46343C4.03845 7.59275 4.10195 7.71154 4.19518 7.80478C4.28842 7.89801 4.4072 7.96151 4.53653 7.98723C4.66585 8.01295 4.79989 7.99975 4.92171 7.94929C5.04352 7.89884 5.14764 7.81339 5.2209 7.70375C5.29415 7.59412 5.33325 7.46523 5.33325 7.33337C5.33325 7.15656 5.26301 6.98699 5.13799 6.86197C5.01297 6.73695 4.8434 6.66671 4.66658 6.66671ZM12.6666 4.00004H11.9999V2.00004C11.9999 1.82323 11.9297 1.65366 11.8047 1.52864C11.6796 1.40361 11.5101 1.33337 11.3333 1.33337H4.66658C4.48977 1.33337 4.3202 1.40361 4.19518 1.52864C4.07016 1.65366 3.99992 1.82323 3.99992 2.00004V4.00004H3.33325C2.80282 4.00004 2.29411 4.21075 1.91904 4.58583C1.54397 4.9609 1.33325 5.46961 1.33325 6.00004V10C1.33325 10.5305 1.54397 11.0392 1.91904 11.4143C2.29411 11.7893 2.80282 12 3.33325 12H3.99992V14C3.99992 14.1769 4.07016 14.3464 4.19518 14.4714C4.3202 14.5965 4.48977 14.6667 4.66658 14.6667H11.3333C11.5101 14.6667 11.6796 14.5965 11.8047 14.4714C11.9297 14.3464 11.9999 14.1769 11.9999 14V12H12.6666C13.197 12 13.7057 11.7893 14.0808 11.4143C14.4559 11.0392 14.6666 10.5305 14.6666 10V6.00004C14.6666 5.46961 14.4559 4.9609 14.0808 4.58583C13.7057 4.21075 13.197 4.00004 12.6666 4.00004ZM5.33325 2.66671H10.6666V4.00004H5.33325V2.66671ZM10.6666 13.3334H5.33325V10.6667H10.6666V13.3334ZM13.3333 10C13.3333 10.1769 13.263 10.3464 13.138 10.4714C13.013 10.5965 12.8434 10.6667 12.6666 10.6667H11.9999V10C11.9999 9.82323 11.9297 9.65366 11.8047 9.52864C11.6796 9.40361 11.5101 9.33337 11.3333 9.33337H4.66658C4.48977 9.33337 4.3202 9.40361 4.19518 9.52864C4.07016 9.65366 3.99992 9.82323 3.99992 10V10.6667H3.33325C3.15644 10.6667 2.98687 10.5965 2.86185 10.4714C2.73682 10.3464 2.66659 10.1769 2.66659 10V6.00004C2.66659 5.82323 2.73682 5.65366 2.86185 5.52864C2.98687 5.40361 3.15644 5.33337 3.33325 5.33337H12.6666C12.8434 5.33337 13.013 5.40361 13.138 5.52864C13.263 5.65366 13.3333 5.82323 13.3333 6.00004V10Z" fill="currentColor"/>
</svg>
